<svg width="14" height="20" viewBox="0 0 14 20" fill="none" xmlns="http://www.w3.org/2000/svg">
<path fill-rule="evenodd" clip-rule="evenodd" d="M1.2437 16.2436C2.4437 18.3248 4.59995 19.5717 6.99995 19.5717C9.39995 19.5717 11.5562 18.3248 12.7562 16.2436C13.9562 14.1623 13.9562 11.6779 12.7562 9.59668L7.6937 0.82168C7.38433 0.287305 6.61558 0.287305 6.3062 0.82168L1.2437 9.59668C0.0343261 11.6779 0.0343261 14.1623 1.2437 16.2436ZM5.57495 4.99355L6.65308 3.11855C6.80308 2.85605 7.19683 2.85605 7.34683 3.11855L11.5 10.3186C12.2593 11.6404 12.4093 13.1686 11.9312 14.5748C11.8843 14.3498 11.8093 14.1154 11.7156 13.8811C11.1437 12.4279 9.84058 11.3123 7.85308 10.5623C6.48433 10.0467 5.61245 9.27793 5.26558 8.29356C4.81558 7.01856 5.2937 5.63105 5.57495 4.99355ZM3.72808 8.18106L2.49995 10.3186C1.56245 11.9498 1.56245 13.8904 2.49995 15.5217C3.43745 17.1529 5.12495 18.1186 6.99995 18.1186C8.24683 18.1186 9.40933 17.6873 10.3281 16.9279C10.45 16.6279 10.8156 15.5311 10.3562 14.3967C9.93433 13.3467 8.92183 12.5123 7.33745 11.9123C5.5562 11.2373 4.3937 10.1779 3.88745 8.77168C3.82183 8.57481 3.77495 8.37793 3.72808 8.18106Z" fill="white"/>
</svg>
