<svg width="16" height="14" viewBox="0 0 16 14" fill="none" xmlns="http://www.w3.org/2000/svg">
<path fill-rule="evenodd" clip-rule="evenodd" d="M2.77196 0.911926C2.87008 0.81583 2.99963 0.759766 3.13309 0.759766H15.5923C15.82 0.759766 15.9338 1.04004 15.7729 1.2042L13.3116 3.71465C13.2174 3.81074 13.0879 3.86681 12.9505 3.86681H0.491295C0.26362 3.86681 0.149784 3.58653 0.310725 3.42237L2.77196 0.911926ZM2.77196 10.2848C2.86617 10.1887 2.99568 10.1327 3.13309 10.1327H15.5923C15.82 10.1327 15.9338 10.4129 15.7729 10.5771L13.3116 13.0876C13.2174 13.1837 13.0879 13.2397 12.9505 13.2397H0.491295C0.26362 13.2397 0.149784 12.9594 0.310725 12.7952L2.77196 10.2848ZM12.9505 5.41634C13.0879 5.41634 13.2174 5.47241 13.3116 5.56845L15.7729 8.07895C15.9338 8.24311 15.82 8.52338 15.5923 8.52338H3.13309C2.99568 8.52338 2.86617 8.46732 2.77196 8.37122L0.310725 5.86077C0.149784 5.69661 0.26362 5.41634 0.491295 5.41634H12.9505Z" fill="url(#paint0_linear_219_690)"/>
<defs>
<linearGradient id="paint0_linear_219_690" x1="12.5049" y1="-1.75018" x2="3.61073" y2="14.9517" gradientUnits="userSpaceOnUse">
<stop stop-color="#00FFA3"/>
<stop offset="1" stop-color="#DC1FFF"/>
</linearGradient>
</defs>
</svg>
