<svg width="14" height="12" viewBox="0 0 14 12" fill="none" xmlns="http://www.w3.org/2000/svg">
<path fill-rule="evenodd" clip-rule="evenodd" d="M3.98512 12.0002H1.63996C1.08392 12.0002 0.80588 12.0002 0.6394 11.8904C0.45944 11.7719 0.34592 11.5729 0.33388 11.3551C0.32272 11.1534 0.46044 10.9076 0.73584 10.416L5.8706 1.25005C6.15004 0.751171 6.2898 0.501691 6.4676 0.408851C6.65968 0.308531 6.88744 0.308371 7.07964 0.408411C7.2576 0.500971 7.39768 0.750251 7.67784 1.24869L8.86208 3.35549C9.0658 3.71793 9.16772 3.89921 9.21252 4.09041C9.26128 4.29857 9.26136 4.51545 9.2128 4.72361C9.16816 4.91485 9.06644 5.09621 8.86296 5.45889L5.79252 10.9321C5.58612 11.3 5.48292 11.484 5.34148 11.6215C5.18756 11.7712 5.00092 11.8815 4.79692 11.9434C4.60944 12.0002 4.40136 12.0002 3.98512 12.0002ZM12.352 12.0002H9.63308C9.072 12.0002 8.79144 12.0002 8.6244 11.8895C8.44392 11.7699 8.33076 11.5695 8.32008 11.3505C8.3102 11.1479 8.4514 10.9011 8.73376 10.4075L10.091 8.03481C10.3698 7.54745 10.5093 7.30373 10.6858 7.21245C10.8765 7.11381 11.1021 7.11365 11.293 7.21201C11.4696 7.30301 11.6094 7.54649 11.8888 8.03337L13.2506 10.4062C13.5341 10.9001 13.6758 11.1471 13.6661 11.3498C13.6556 11.5689 13.5425 11.7696 13.362 11.8894C13.1949 12.0002 12.914 12.0002 12.352 12.0002Z" fill="white"/>
</svg>
