<svg width="16" height="14" viewBox="0 0 16 14" fill="none" xmlns="http://www.w3.org/2000/svg">
<path fill-rule="evenodd" clip-rule="evenodd" d="M4.01148 0.300875C4.25312 0.166635 4.54688 0.166635 4.78852 0.300875L8.38852 2.30087C8.64248 2.44195 8.8 2.70968 8.8 3.0002V4.30088L7.2 5.2002V3.47092L4.4 1.91536L1.6 3.47092V6.52948L4.4 8.08504L11.2115 4.30088C11.4531 4.16664 11.7469 4.16664 11.9885 4.30088L15.5885 6.30088C15.8425 6.44196 16 6.70968 16 7.0002V11.0002C16 11.2907 15.8425 11.5584 15.5885 11.6995L11.9885 13.6995C11.7469 13.8338 11.4531 13.8338 11.2115 13.6995L7.61148 11.6995C7.35752 11.5584 7.2 11.2907 7.2 11.0002V9.69952L8.8 8.8002V10.5295L11.6 12.085L14.4 10.5295V7.47092L11.6 5.91536L4.78852 9.69952C4.54688 9.83375 4.25312 9.83375 4.01148 9.69952L0.41148 7.69952C0.15752 7.55844 0 7.29072 0 7.0002V3.0002C0 2.70968 0.15752 2.44195 0.41148 2.30087L4.01148 0.300875Z" fill="white"/>
</svg>
