<svg width="12" height="15" viewBox="0 0 12 15" fill="none" xmlns="http://www.w3.org/2000/svg">
<path d="M2.31616 2.3446L6.00008 0.200195L9.684 2.3446L8.32956 3.13676L6.00008 1.7846L3.67044 3.13676L2.31616 2.3446ZM9.684 5.049L8.32956 4.25676L6.00008 5.60899L3.67044 4.25676L2.31616 5.049V6.6334L4.64564 7.98548V10.69L6.00008 11.4822L7.35448 10.69V7.98548L9.684 6.6334V5.049ZM9.684 9.33772V7.75331L8.32956 8.54552V10.1299L9.684 9.33772ZM10.6456 9.89776L8.31608 11.2499V12.8343L12 10.69V6.4012L10.6456 7.19328V9.89776ZM9.29116 3.69676L10.6456 4.48896V6.07336L12 5.28116V3.69676L10.6456 2.9046L9.29116 3.69676ZM4.64564 11.8236V13.408L6.00008 14.2002L7.35448 13.408V11.8236L6.00008 12.6158L4.64564 11.8236ZM2.31616 9.33772L3.67044 10.1299V8.54552L2.31616 7.75331V9.33772ZM4.64564 3.69676L6.00008 4.48896L7.35448 3.69676L6.00008 2.9046L4.64564 3.69676ZM1.3544 4.48896L2.70884 3.69676L1.3544 2.9046L0 3.69676V5.28116L1.3544 6.07336V4.48896ZM1.3544 7.19328L0 6.4012V10.69L3.68404 12.8343V11.2499L1.3544 9.89776V7.19328Z" fill="white"/>
</svg>
